<svg width="22" height="26" viewBox="0 0 22 26" fill="none" xmlns="http://www.w3.org/2000/svg">
<path d="M3.38064 0.563713C1.62442 0.923296 0.321585 2.27825 0.0505954 4.02926C0.00369328 4.31588 -0.00672941 6.39521 0.00369328 11.9766C0.0193273 20.2157 -0.00151807 19.5851 0.305951 20.4033C0.6499 21.3257 1.66611 22.3419 2.58852 22.6859C3.38064 22.9829 3.19825 22.9725 7.32563 22.9725C11.0934 22.9725 11.1403 22.9725 11.281 22.8631C11.5572 22.6598 11.6406 22.493 11.6406 22.1647C11.6406 21.8364 11.5572 21.6697 11.281 21.4664C11.1403 21.357 11.0726 21.357 7.37774 21.3309C3.67769 21.3049 3.60994 21.3049 3.34416 21.1902C2.49472 20.8463 1.95274 20.247 1.73907 19.4184C1.61921 18.965 1.61921 4.51391 1.73907 4.05532C1.97358 3.15896 2.6719 2.46585 3.57346 2.23134C4.02164 2.1167 14.3088 2.1167 14.757 2.23134C15.6586 2.46585 16.3569 3.15896 16.5914 4.05532C16.6539 4.31067 16.6696 4.76927 16.6696 6.69747C16.6696 9.29792 16.6644 9.27187 17.0135 9.53244C17.1751 9.65751 17.2585 9.68357 17.5034 9.68357C17.7483 9.68357 17.8317 9.65751 17.9933 9.53244C18.3528 9.26145 18.3424 9.31356 18.3268 6.48901C18.3059 3.7739 18.3111 3.84165 18.0245 3.08079C17.8734 2.67952 17.4825 2.08543 17.1125 1.72063C16.7582 1.35584 16.1536 0.949352 15.742 0.798223C14.9342 0.495966 15.3563 0.5116 9.29552 0.501177C4.83982 0.495966 3.65163 0.506388 3.38064 0.563713Z" fill="#FF3838"/>
<path d="M4.65797 5.56141C4.30881 5.71254 4.11078 6.11381 4.18374 6.50466C4.23064 6.74959 4.49121 7.03622 4.72572 7.10396C4.856 7.14565 5.93996 7.15608 8.02971 7.14565C11.0783 7.13002 11.1409 7.13002 11.2816 7.02058C11.5578 6.81734 11.6412 6.65058 11.6412 6.32226C11.6412 5.99395 11.5578 5.82718 11.2816 5.62394C11.1409 5.5145 11.0783 5.5145 7.9776 5.50408C5.42925 5.49366 4.78304 5.50408 4.65797 5.56141Z" fill="#FF3838"/>
<path d="M4.65696 9.73048C4.1671 9.94415 4.01075 10.606 4.3547 11.0177C4.62569 11.3356 4.49541 11.3252 8.4873 11.3252C12.0623 11.3252 12.1457 11.3252 12.3489 11.2209C12.8857 10.9447 12.9482 10.1995 12.4583 9.82429L12.2759 9.68358L8.54462 9.67316C5.52204 9.66274 4.78203 9.67316 4.65696 9.73048Z" fill="#FF3838"/>
<path d="M15.7996 11.4033C14.7522 11.5909 13.8975 12.0495 13.1262 12.8312C12.454 13.5087 12.0214 14.2748 11.7869 15.2128C11.6514 15.76 11.667 17.0003 11.8182 17.5527C12.0266 18.3396 12.4852 19.1578 13.0376 19.7467L13.3347 20.0698V22.2429C13.3347 23.7438 13.3555 24.4838 13.3972 24.6193C13.5327 25.0727 14.1007 25.5 14.5646 25.5C14.9085 25.5 15.1743 25.3749 15.9456 24.8486L16.6699 24.3535L17.4412 24.8694C18.2907 25.4375 18.4939 25.5261 18.8639 25.4844C19.3017 25.4323 19.656 25.1873 19.8645 24.7965C19.9739 24.5932 19.9791 24.5307 19.9948 22.3263L20.0104 20.0646L20.3179 19.7258C20.7087 19.3037 20.938 18.9546 21.2038 18.4022C21.5477 17.6882 21.6363 17.2609 21.6416 16.3541C21.6416 15.4942 21.5842 15.1607 21.3028 14.4572C20.938 13.5348 20.1355 12.5915 19.2808 12.0652C18.2594 11.4398 16.9618 11.1897 15.7996 11.4033ZM17.3735 13.0709C17.8321 13.1648 18.4939 13.4983 18.8535 13.811C20.0521 14.8584 20.3491 16.6251 19.5518 17.9957C19.2964 18.4282 18.7701 18.9546 18.3376 19.2099C16.7012 20.1636 14.5541 19.5278 13.7099 17.8393C13.2148 16.8544 13.2148 15.8069 13.6995 14.8376C14.3874 13.4774 15.8778 12.7583 17.3735 13.0709ZM15.487 21.185C16.0967 21.3466 17.2432 21.3466 17.8529 21.185C18.0874 21.1225 18.2907 21.0704 18.3063 21.0704C18.3219 21.0704 18.3376 21.6071 18.3376 22.269V23.4676L17.6288 22.9986C16.6699 22.3628 16.6699 22.3628 15.711 22.9986L15.0023 23.4676V22.269C15.0023 21.6071 15.0179 21.0704 15.0336 21.0704C15.0492 21.0704 15.2524 21.1225 15.487 21.185Z" fill="#FF3838"/>
<path d="M4.65797 13.0657C4.30881 13.2169 4.11078 13.6181 4.18374 14.009C4.23064 14.2539 4.49121 14.5406 4.72572 14.6083C4.856 14.65 5.75235 14.6604 7.40435 14.65C9.82762 14.6344 9.89016 14.6344 10.0361 14.5249C10.5468 14.1445 10.5468 13.5087 10.0361 13.1283C9.89016 13.0188 9.83284 13.0188 7.35224 13.0084C5.31981 12.998 4.78304 13.0084 4.65797 13.0657Z" fill="#FF3838"/>
<path d="M4.65696 16.401C4.1671 16.6147 4.01075 17.2765 4.3547 17.6882C4.61527 17.9957 4.62048 17.9957 7.10629 17.9957C9.62858 17.9957 9.61295 17.9957 9.87352 17.6517C9.99859 17.4902 10.0246 17.4068 10.0246 17.1619C10.0246 16.9169 9.99859 16.8335 9.87352 16.672C9.61295 16.3228 9.63379 16.328 7.09587 16.328C5.31359 16.3332 4.77682 16.3489 4.65696 16.401Z" fill="#FF3838"/>
</svg>
